<svg width="165" height="188" viewBox="0 0 165 188" fill="none" xmlns="http://www.w3.org/2000/svg">
<path fill-rule="evenodd" clip-rule="evenodd" d="M120.858 109.84H120.904V101.439H120.858V99.8376C120.858 96.2393 117.93 93.3119 114.364 93.3119H75.2925C71.7419 93.3119 68.8437 90.3997 68.8437 86.8319V73.689C68.8437 70.1212 71.7419 67.209 75.2925 67.209H114.516C118.021 67.209 120.889 64.3273 120.889 60.8052V60.6833H120.919V47.5403C120.919 47.3879 120.889 47.2506 120.843 47.1439C120.509 44.1402 118.082 41.7465 115.062 41.4873H115.032C114.865 41.4873 114.698 41.472 114.531 41.472H49.6493C46.1442 41.472 43.2916 44.3537 43.2916 47.8758V48.9735H43.2612V139.465C43.2612 143.032 40.3631 145.945 36.8125 145.945H23.7481C20.1975 145.945 17.2994 143.032 17.2994 139.465V21.8491C17.2994 18.2813 20.1975 15.3691 23.7481 15.3691H36.8125C36.9491 15.3691 37.0856 15.3691 37.2222 15.3691H141.13C144.681 15.3691 147.579 18.2813 147.579 21.8491V34.992C147.579 65.1811 147.685 95.7056 147.685 126.017V139.16C147.685 142.727 144.787 145.64 141.236 145.64H116.352C110.1 145.838 103.409 144.816 99.0086 148.445C92.8027 153.553 82.3633 164.851 75.0193 171.194C71.8177 173.969 68.9348 172.901 68.9348 164.759C68.9348 156.617 69.1927 147.21 69.1927 139.144V126.001C69.1927 122.784 71.5598 120.086 74.64 119.598H114.395C117.975 119.598 120.889 116.655 120.889 113.072V109.84H120.858Z" fill="#E67059"/>
<path fill-rule="evenodd" clip-rule="evenodd" d="M19.9547 7.2576C25.3565 6.22081 123.059 6.98316 137.489 6.96791C145.151 6.96791 148.065 6.73921 152.844 11.1761C157.214 15.247 157.442 18.3879 157.427 25.6455C157.381 51.2452 157.427 76.8602 157.427 102.46C157.427 114.2 158.352 129.905 157.366 141.157C156.88 146.676 153.315 150.778 149.4 152.79C144.529 155.276 137.822 154.437 131.981 154.437C99.57 154.437 106.246 154.254 79.3893 180.006C72.6219 186.486 78.3575 188.209 80.2542 187.98C82.2419 187.736 90.4963 178.832 93.1365 176.255C101.558 168.037 106.246 161.435 117.126 161.405C127.58 161.374 145.758 163.189 153.633 158.523C163.572 152.638 164.695 145.441 164.695 130.926C164.695 105.494 164.695 80.0773 164.695 54.6606C164.695 46.0003 165.726 23.3127 163.997 16.3906C161.66 7.10513 153.497 0.0305206 141.904 2.65995e-05H23.657C11.7155 -0.0152204 3.55217 6.52575 1.00302 15.8722C-0.696412 22.1234 0.274691 45.3599 0.289865 53.578L0.153303 130.392C0.153303 137.299 -0.286728 141.416 2.64176 147.149C8.71115 159.026 19.7726 158.721 29.7113 158.721C32.1087 158.721 37.4649 159.011 39.5133 158.676C42.2749 158.234 43.8074 154.788 41.5314 152.699C36.9794 148.491 18.5436 157.273 9.90986 145.426C5.37299 139.19 7.30002 118.637 7.30002 109.428L7.43658 33.1623C7.43658 23.4804 5.06951 10.124 19.9395 7.2576" fill="#E67059"/>
</svg>